<svg width="17" height="16" viewBox="0 0 17 16" fill="none" xmlns="http://www.w3.org/2000/svg">
<path d="M6.33268 14.9999C6.70087 14.9999 6.99935 14.7014 6.99935 14.3332C6.99935 13.965 6.70087 13.6665 6.33268 13.6665C5.96449 13.6665 5.66602 13.965 5.66602 14.3332C5.66602 14.7014 5.96449 14.9999 6.33268 14.9999Z" stroke="#ADB5BD" stroke-width="1.5" stroke-linecap="round" stroke-linejoin="round"/>
<path d="M13.6667 14.9999C14.0349 14.9999 14.3333 14.7014 14.3333 14.3332C14.3333 13.965 14.0349 13.6665 13.6667 13.6665C13.2985 13.6665 13 13.965 13 14.3332C13 14.7014 13.2985 14.9999 13.6667 14.9999Z" stroke="#ADB5BD" stroke-width="1.5" stroke-linecap="round" stroke-linejoin="round"/>
<path d="M1 1H3.66667L5.45333 9.92667C5.5143 10.2336 5.68127 10.5093 5.92503 10.7055C6.16879 10.9018 6.4738 11.006 6.78667 11H13.2667C13.5795 11.006 13.8845 10.9018 14.1283 10.7055C14.3721 10.5093 14.539 10.2336 14.6 9.92667L15.6667 4.33333H4.33333" stroke="#ADB5BD" stroke-width="1.5" stroke-linecap="round" stroke-linejoin="round"/>
</svg>
