<svg width="22" height="19" viewBox="0 0 22 19" fill="none" xmlns="http://www.w3.org/2000/svg">
<rect x="16.0048" y="1.64516" width="0.650306" height="0.650306" stroke="white" stroke-width="0.650306"/>
<rect x="16.0048" y="3.78165" width="0.650306" height="0.650306" stroke="white" stroke-width="0.650306"/>
<rect x="16.0048" y="5.91845" width="0.650306" height="0.650306" stroke="white" stroke-width="0.650306"/>
<rect x="16.0048" y="8.05526" width="0.650306" height="0.650306" stroke="white" stroke-width="0.650306"/>
<rect x="18.2353" y="1.6451" width="0.650306" height="0.650306" stroke="white" stroke-width="0.650306"/>
<rect x="18.2353" y="3.78165" width="0.650306" height="0.650306" stroke="white" stroke-width="0.650306"/>
<rect x="18.2353" y="5.91845" width="0.650306" height="0.650306" stroke="white" stroke-width="0.650306"/>
<rect x="18.2353" y="8.05526" width="0.650306" height="0.650306" stroke="white" stroke-width="0.650306"/>
<rect x="20.4658" y="1.6451" width="0.650306" height="0.650306" stroke="white" stroke-width="0.650306"/>
<rect x="20.4658" y="3.78165" width="0.650306" height="0.650306" stroke="white" stroke-width="0.650306"/>
<rect x="20.4658" y="5.91845" width="0.650306" height="0.650306" stroke="white" stroke-width="0.650306"/>
<rect x="20.4658" y="8.05526" width="0.650306" height="0.650306" stroke="white" stroke-width="0.650306"/>
<path d="M12.4803 12.969C12.4803 14.0693 12.2072 15.0483 11.6609 15.9059C11.1147 16.7554 10.327 17.4188 9.29781 17.8961C8.26865 18.3654 7.06135 18.6 5.67594 18.6C4.5201 18.6 3.55031 18.5191 2.76656 18.3573C1.98281 18.1874 1.1674 17.8961 0.320312 17.4835V13.2117C1.2149 13.681 2.1451 14.0491 3.11094 14.3161C4.07677 14.575 4.96344 14.7044 5.77094 14.7044C6.4676 14.7044 6.97823 14.5831 7.30281 14.3404C7.6274 14.0896 7.78969 13.77 7.78969 13.3816C7.78969 13.1389 7.7224 12.9286 7.58781 12.7506C7.46115 12.5645 7.25135 12.3784 6.95844 12.1923C6.67344 12.0063 5.90552 11.626 4.65469 11.0516C3.5226 10.5257 2.67156 10.016 2.10156 9.52248C1.53948 9.02896 1.1199 8.46262 0.842812 7.82347C0.573646 7.18433 0.439062 6.42786 0.439062 5.55409C0.439062 3.91981 1.02094 2.64556 2.18469 1.73134C3.34844 0.817113 4.9476 0.360001 6.98219 0.360001C8.77927 0.360001 10.612 0.784751 12.4803 1.63425L11.0434 5.33565C9.42052 4.57514 8.01927 4.19489 6.83969 4.19489C6.2301 4.19489 5.78677 4.30411 5.50969 4.52256C5.2326 4.741 5.09406 5.01203 5.09406 5.33565C5.09406 5.68354 5.26823 5.99502 5.61656 6.2701C5.97281 6.54518 6.93073 7.04679 8.49031 7.77493C9.98656 8.46262 11.0236 9.2029 11.6016 9.99577C12.1874 10.7805 12.4803 11.7716 12.4803 12.969Z" fill="#FFFDFE"/>
</svg>
